<svg id="Layer_1" data-name="Layer 1" xmlns="http://www.w3.org/2000/svg" viewBox="0 0 512 512"><defs><style>.cls-1{fill:#b1b1b1;}.cls-2{fill:#cecece;}.cls-3{fill:#fff;opacity:0.3;}.cls-4{fill:#ffaa01;}.cls-5{fill:#f7c979;}.cls-6{fill:#5b5b5a;}.cls-7{fill:#c6ebf3;}polygon.cls-1:hover{fill: red;}</style></defs><title>bee-hive</title><polygon class="cls-1" points="20.84 358.64 20.84 383.12 -0.36 395.37 -0.36 346.39 20.84 358.64"/><polygon class="cls-1" points="20.84 446.64 20.84 471.12 -0.36 483.37 -0.36 434.39 20.84 446.64"/><polygon class="cls-1" points="25.97 358.54 47.17 346.3 68.38 358.54 68.38 383.03 47.17 395.27 25.97 383.03 25.97 358.54"/><polygon class="cls-2" points="32.37 380.22 29.3 380.22 29.3 360.46 47.17 350.13 47.17 353.69 32.37 362.23 32.37 380.22"/><polygon class="cls-3" points="25.97 358.54 25.97 383.03 47.17 395.27 47.17 346.3 25.97 358.54"/><polygon class="cls-1" points="0.43 403.49 21.64 391.24 42.84 403.49 42.84 427.97 21.64 440.22 0.43 427.97 0.43 403.49"/><polygon class="cls-2" points="6.83 425.16 3.76 425.16 3.76 405.41 21.64 395.07 21.64 398.63 6.83 407.18 6.83 425.16"/><polygon class="cls-3" points="0.43 403.49 0.43 427.97 21.64 440.22 21.64 391.24 0.43 403.49"/><polygon class="cls-1" points="51.51 403.49 72.71 391.24 93.92 403.49 93.92 427.97 72.71 440.22 51.51 427.97 51.51 403.49"/><polygon class="cls-2" points="57.9 425.16 54.84 425.16 54.84 405.41 72.71 395.07 72.71 398.63 57.9 407.18 57.9 425.16"/><polygon class="cls-3" points="51.51 403.49 51.51 427.97 72.71 440.22 72.71 391.24 51.51 403.49"/><polygon class="cls-1" points="25.97 446.39 47.17 434.15 68.38 446.39 68.38 470.88 47.17 483.12 25.97 470.88 25.97 446.39"/><polygon class="cls-2" points="32.37 468.07 29.3 468.07 29.3 448.31 47.17 437.98 47.17 441.54 32.37 450.08 32.37 468.07"/><polygon class="cls-3" points="25.97 446.39 25.97 470.88 47.17 483.12 47.17 434.15 25.97 446.39"/><polygon class="cls-1" points="77.64 358.54 98.84 346.3 120.05 358.54 120.05 383.03 98.84 395.27 77.64 383.03 77.64 358.54"/><polygon class="cls-2" points="84.03 380.22 80.97 380.22 80.97 360.46 98.84 350.13 98.84 353.69 84.03 362.23 84.03 380.22"/><polygon class="cls-3" points="77.64 358.54 77.64 383.03 98.84 395.27 98.84 346.3 77.64 358.54"/><polygon class="cls-4" points="180.97 358.54 202.18 346.3 223.38 358.54 223.38 383.03 202.18 395.27 180.97 383.03 180.97 358.54"/><polygon class="cls-5" points="187.37 380.22 184.3 380.22 184.3 360.46 202.18 350.13 202.18 353.69 187.37 362.23 187.37 380.22"/><polygon class="cls-3" points="180.97 358.54 180.97 383.03 202.18 395.27 202.18 346.3 180.97 358.54"/><polygon class="cls-1" points="103.77 403.49 124.97 391.24 146.18 403.49 146.18 427.97 124.97 440.22 103.77 427.97 103.77 403.49"/><polygon class="cls-2" points="110.16 425.16 107.1 425.16 107.1 405.41 124.97 395.07 124.97 398.63 110.16 407.18 110.16 425.16"/><polygon class="cls-3" points="103.77 403.49 103.77 427.97 124.97 440.22 124.97 391.24 103.77 403.49"/><polygon class="cls-1" points="77.64 446.39 98.84 434.15 120.05 446.39 120.05 470.88 98.84 483.12 77.64 470.88 77.64 446.39"/><polygon class="cls-2" points="84.03 468.07 80.97 468.07 80.97 448.31 98.84 437.98 98.84 441.54 84.03 450.08 84.03 468.07"/><polygon class="cls-3" points="77.64 446.39 77.64 470.88 98.84 483.12 98.84 434.15 77.64 446.39"/><polygon class="cls-1" points="129.3 446.39 150.51 434.15 171.71 446.39 171.71 470.88 150.51 483.12 129.3 470.88 129.3 446.39"/><polygon class="cls-2" points="135.7 468.07 132.64 468.07 132.64 448.31 150.51 437.98 150.51 441.54 135.7 450.08 135.7 468.07"/><polygon class="cls-3" points="129.3 446.39 129.3 470.88 150.51 483.12 150.51 434.15 129.3 446.39"/><polygon class="cls-1" points="180.97 446.39 202.18 434.15 223.38 446.39 223.38 470.88 202.18 483.12 180.97 470.88 180.97 446.39"/><polygon class="cls-2" points="187.37 468.07 184.3 468.07 184.3 448.31 202.18 437.98 202.18 441.54 187.37 450.08 187.37 468.07"/><polygon class="cls-3" points="180.97 446.39 180.97 470.88 202.18 483.12 202.18 434.15 180.97 446.39"/><polygon class="cls-4" points="232.64 446.39 253.84 434.15 275.05 446.39 275.05 470.88 253.84 483.12 232.64 470.88 232.64 446.39"/><polygon class="cls-5" points="239.03 468.07 235.97 468.07 235.97 448.31 253.84 437.98 253.84 441.54 239.03 450.08 239.03 468.07"/><polygon class="cls-3" points="232.64 446.39 232.64 470.88 253.84 483.12 253.84 434.15 232.64 446.39"/><polygon class="cls-1" points="283.97 446.39 305.17 434.15 326.38 446.39 326.38 470.88 305.17 483.12 283.97 470.88 283.97 446.39"/><polygon class="cls-2" points="290.37 468.07 287.3 468.07 287.3 448.31 305.17 437.98 305.17 441.54 290.37 450.08 290.37 468.07"/><polygon class="cls-3" points="283.97 446.39 283.97 470.88 305.17 483.12 305.17 434.15 283.97 446.39"/><polygon class="cls-1" points="335.64 446.39 356.84 434.15 378.05 446.39 378.05 470.88 356.84 483.12 335.64 470.88 335.64 446.39"/><polygon class="cls-2" points="342.03 468.07 338.97 468.07 338.97 448.31 356.84 437.98 356.84 441.54 342.03 450.08 342.03 468.07"/><polygon class="cls-3" points="335.64 446.39 335.64 470.88 356.84 483.12 356.84 434.15 335.64 446.39"/><polygon class="cls-1" points="387.3 446.39 408.51 434.15 429.71 446.39 429.71 470.88 408.51 483.12 387.3 470.88 387.3 446.39"/><polygon class="cls-2" points="393.7 468.07 390.64 468.07 390.64 448.31 408.51 437.98 408.51 441.54 393.7 450.08 393.7 468.07"/><polygon class="cls-3" points="387.3 446.39 387.3 470.88 408.51 483.12 408.51 434.15 387.3 446.39"/><polygon class="cls-1" points="438.97 446.39 460.18 434.15 481.38 446.39 481.38 470.88 460.18 483.12 438.97 470.88 438.97 446.39"/><polygon class="cls-2" points="445.37 468.07 442.3 468.07 442.3 448.31 460.18 437.98 460.18 441.54 445.37 450.08 445.37 468.07"/><polygon class="cls-3" points="438.97 446.39 438.97 470.88 460.18 483.12 460.18 434.15 438.97 446.39"/><polygon class="cls-1" points="511.84 434.15 511.84 483.12 490.64 470.88 490.64 446.39 511.84 434.15"/><polygon class="cls-2" points="511.84 437.98 511.84 441.54 497.03 450.08 497.03 468.07 493.97 468.07 493.97 448.32 511.84 437.98"/><polygon class="cls-3" points="511.84 434.15 511.84 483.12 490.64 470.88 490.64 446.39 511.84 434.15"/><polygon class="cls-1" points="232.64 358.39 253.84 346.15 275.05 358.39 275.05 382.88 253.84 395.12 232.64 382.88 232.64 358.39"/><polygon class="cls-2" points="239.03 380.07 235.97 380.07 235.97 360.31 253.84 349.98 253.84 353.54 239.03 362.08 239.03 380.07"/><polygon class="cls-3" points="232.64 358.39 232.64 382.88 253.84 395.12 253.84 346.15 232.64 358.39"/><polygon class="cls-4" points="283.97 358.39 305.17 346.15 326.38 358.39 326.38 382.88 305.17 395.12 283.97 382.88 283.97 358.39"/><polygon class="cls-5" points="290.37 380.07 287.3 380.07 287.3 360.31 305.17 349.98 305.17 353.54 290.37 362.08 290.37 380.07"/><polygon class="cls-3" points="283.97 358.39 283.97 382.88 305.17 395.12 305.17 346.15 283.97 358.39"/><polygon class="cls-4" points="335.64 358.39 356.84 346.15 378.05 358.39 378.05 382.88 356.84 395.12 335.64 382.88 335.64 358.39"/><polygon class="cls-5" points="342.03 380.07 338.97 380.07 338.97 360.31 356.84 349.98 356.84 353.54 342.03 362.08 342.03 380.07"/><polygon class="cls-3" points="335.64 358.39 335.64 382.88 356.84 395.12 356.84 346.15 335.64 358.39"/><polygon class="cls-1" points="387.3 358.39 408.51 346.15 429.71 358.39 429.71 382.88 408.51 395.12 387.3 382.88 387.3 358.39"/><polygon class="cls-2" points="393.7 380.07 390.64 380.07 390.64 360.31 408.51 349.98 408.51 353.54 393.7 362.08 393.7 380.07"/><polygon class="cls-3" points="387.3 358.39 387.3 382.88 408.51 395.12 408.51 346.15 387.3 358.39"/><polygon class="cls-1" points="438.97 358.39 460.18 346.15 481.38 358.39 481.38 382.88 460.18 395.12 438.97 382.88 438.97 358.39"/><polygon class="cls-2" points="445.37 380.07 442.3 380.07 442.3 360.31 460.18 349.98 460.18 353.54 445.37 362.08 445.37 380.07"/><polygon class="cls-3" points="438.97 358.39 438.97 382.88 460.18 395.12 460.18 346.15 438.97 358.39"/><polygon class="cls-1" points="511.84 346.15 511.84 395.12 490.64 382.88 490.64 358.39 511.84 346.15"/><polygon class="cls-2" points="511.84 349.98 511.84 353.54 497.03 362.08 497.03 380.07 493.97 380.07 493.97 360.32 511.84 349.98"/><polygon class="cls-3" points="511.84 346.15 511.84 395.12 490.64 382.88 490.64 358.39 511.84 346.15"/><polygon class="cls-4" points="206.97 403.39 228.18 391.15 249.38 403.39 249.38 427.88 228.18 440.12 206.97 427.88 206.97 403.39"/><polygon class="cls-5" points="213.37 425.07 210.3 425.07 210.3 405.31 228.18 394.98 228.18 398.54 213.37 407.08 213.37 425.07"/><polygon class="cls-3" points="206.97 403.39 206.97 427.88 228.18 440.12 228.18 391.15 206.97 403.39"/><polygon class="cls-4" points="258.64 403.39 279.84 391.15 301.05 403.39 301.05 427.88 279.84 440.12 258.64 427.88 258.64 403.39"/><polygon class="cls-5" points="265.03 425.07 261.97 425.07 261.97 405.31 279.84 394.98 279.84 398.54 265.03 407.08 265.03 425.07"/><polygon class="cls-3" points="258.64 403.39 258.64 427.88 279.84 440.12 279.84 391.15 258.64 403.39"/><polygon class="cls-4" points="309.97 403.39 331.17 391.15 352.38 403.39 352.38 427.88 331.17 440.12 309.97 427.88 309.97 403.39"/><polygon class="cls-5" points="316.37 425.07 313.3 425.07 313.3 405.31 331.17 394.98 331.17 398.54 316.37 407.08 316.37 425.07"/><polygon class="cls-3" points="309.97 403.39 309.97 427.88 331.17 440.12 331.17 391.15 309.97 403.39"/><polygon class="cls-1" points="361.64 403.39 382.84 391.15 404.05 403.39 404.05 427.88 382.84 440.12 361.64 427.88 361.64 403.39"/><polygon class="cls-2" points="368.03 425.07 364.97 425.07 364.97 405.31 382.84 394.98 382.84 398.54 368.03 407.08 368.03 425.07"/><polygon class="cls-3" points="361.64 403.39 361.64 427.88 382.84 440.12 382.84 391.15 361.64 403.39"/><polygon class="cls-1" points="413.3 403.39 434.51 391.15 455.71 403.39 455.71 427.88 434.51 440.12 413.3 427.88 413.3 403.39"/><polygon class="cls-2" points="419.7 425.07 416.64 425.07 416.64 405.31 434.51 394.98 434.51 398.54 419.7 407.08 419.7 425.07"/><polygon class="cls-3" points="413.3 403.39 413.3 427.88 434.51 440.12 434.51 391.15 413.3 403.39"/><polygon class="cls-1" points="464.97 403.39 486.18 391.15 507.38 403.39 507.38 427.88 486.18 440.12 464.97 427.88 464.97 403.39"/><polygon class="cls-2" points="471.37 425.07 468.3 425.07 468.3 405.31 486.18 394.98 486.18 398.54 471.37 407.08 471.37 425.07"/><polygon class="cls-3" points="464.97 403.39 464.97 427.88 486.18 440.12 486.18 391.15 464.97 403.39"/><polygon class="cls-1" points="0.43 489.49 21.64 477.24 42.84 489.49 42.84 513.97 21.64 526.22 0.43 513.97 0.43 489.49"/><polygon class="cls-2" points="6.83 511.16 3.76 511.16 3.76 491.41 21.64 481.07 21.64 484.63 6.83 493.18 6.83 511.16"/><polygon class="cls-3" points="0.43 489.49 0.43 513.97 21.64 526.22 21.64 477.24 0.43 489.49"/><polygon class="cls-1" points="51.51 489.49 72.71 477.24 93.92 489.49 93.92 513.97 72.71 526.22 51.51 513.97 51.51 489.49"/><polygon class="cls-2" points="57.9 511.16 54.84 511.16 54.84 491.41 72.71 481.07 72.71 484.63 57.9 493.18 57.9 511.16"/><polygon class="cls-3" points="51.51 489.49 51.51 513.97 72.71 526.22 72.71 477.24 51.51 489.49"/><polygon class="cls-1" points="103.77 489.49 124.97 477.24 146.18 489.49 146.18 513.97 124.97 526.22 103.77 513.97 103.77 489.49"/><polygon class="cls-2" points="110.16 511.16 107.1 511.16 107.1 491.41 124.97 481.07 124.97 484.63 110.16 493.18 110.16 511.16"/><polygon class="cls-3" points="103.77 489.49 103.77 513.97 124.97 526.22 124.97 477.24 103.77 489.49"/><polygon class="cls-1" points="154.84 489.49 176.05 477.24 197.25 489.49 197.25 513.97 176.05 526.22 154.84 513.97 154.84 489.49"/><polygon class="cls-2" points="161.24 511.16 158.17 511.16 158.17 491.41 176.05 481.07 176.05 484.63 161.24 493.18 161.24 511.16"/><polygon class="cls-3" points="154.84 489.49 154.84 513.97 176.05 526.22 176.05 477.24 154.84 489.49"/><polygon class="cls-1" points="206.97 489.39 228.18 477.15 249.38 489.39 249.38 513.88 228.18 526.12 206.97 513.88 206.97 489.39"/><polygon class="cls-2" points="213.37 511.07 210.3 511.07 210.3 491.31 228.18 480.98 228.18 484.54 213.37 493.08 213.37 511.07"/><polygon class="cls-3" points="206.97 489.39 206.97 513.88 228.18 526.12 228.18 477.15 206.97 489.39"/><polygon class="cls-1" points="258.64 489.39 279.84 477.15 301.05 489.39 301.05 513.88 279.84 526.12 258.64 513.88 258.64 489.39"/><polygon class="cls-2" points="265.03 511.07 261.97 511.07 261.97 491.31 279.84 480.98 279.84 484.54 265.03 493.08 265.03 511.07"/><polygon class="cls-3" points="258.64 489.39 258.64 513.88 279.84 526.12 279.84 477.15 258.64 489.39"/><polygon class="cls-1" points="309.97 489.39 331.17 477.15 352.38 489.39 352.38 513.88 331.17 526.12 309.97 513.88 309.97 489.39"/><polygon class="cls-2" points="316.37 511.07 313.3 511.07 313.3 491.31 331.17 480.98 331.17 484.54 316.37 493.08 316.37 511.07"/><polygon class="cls-3" points="309.97 489.39 309.97 513.88 331.17 526.12 331.17 477.15 309.97 489.39"/><polygon class="cls-1" points="361.64 489.39 382.84 477.15 404.05 489.39 404.05 513.88 382.84 526.12 361.64 513.88 361.64 489.39"/><polygon class="cls-2" points="368.03 511.07 364.97 511.07 364.97 491.31 382.84 480.98 382.84 484.54 368.03 493.08 368.03 511.07"/><polygon class="cls-3" points="361.64 489.39 361.64 513.88 382.84 526.12 382.84 477.15 361.64 489.39"/><polygon class="cls-1" points="413.3 489.39 434.51 477.15 455.71 489.39 455.71 513.88 434.51 526.12 413.3 513.88 413.3 489.39"/><polygon class="cls-2" points="419.7 511.07 416.64 511.07 416.64 491.31 434.51 480.98 434.51 484.54 419.7 493.08 419.7 511.07"/><polygon class="cls-3" points="413.3 489.39 413.3 513.88 434.51 526.12 434.51 477.15 413.3 489.39"/><polygon class="cls-1" points="464.97 489.39 486.18 477.15 507.38 489.39 507.38 513.88 486.18 526.12 464.97 513.88 464.97 489.39"/><polygon class="cls-2" points="471.37 511.07 468.3 511.07 468.3 491.31 486.18 480.98 486.18 484.54 471.37 493.08 471.37 511.07"/><polygon class="cls-3" points="464.97 489.39 464.97 513.88 486.18 526.12 486.18 477.15 464.97 489.39"/><polygon class="cls-1" points="20.84 268.64 20.84 293.12 -0.36 305.37 -0.36 256.39 20.84 268.64"/><polygon class="cls-1" points="25.97 268.54 47.17 256.3 68.38 268.54 68.38 293.03 47.17 305.27 25.97 293.03 25.97 268.54"/><polygon class="cls-2" points="32.37 290.22 29.3 290.22 29.3 270.46 47.17 260.13 47.17 263.69 32.37 272.23 32.37 290.22"/><polygon class="cls-3" points="25.97 268.54 25.97 293.03 47.17 305.27 47.17 256.3 25.97 268.54"/><polygon class="cls-1" points="0.43 313.49 21.64 301.24 42.84 313.49 42.84 337.97 21.64 350.22 0.43 337.97 0.43 313.49"/><polygon class="cls-2" points="6.83 335.16 3.76 335.16 3.76 315.41 21.64 305.07 21.64 308.63 6.83 317.18 6.83 335.16"/><polygon class="cls-3" points="0.43 313.49 0.43 337.97 21.64 350.22 21.64 301.24 0.43 313.49"/><polygon class="cls-1" points="51.51 313.49 72.71 301.24 93.92 313.49 93.92 337.97 72.71 350.22 51.51 337.97 51.51 313.49"/><polygon class="cls-2" points="57.9 335.16 54.84 335.16 54.84 315.41 72.71 305.07 72.71 308.63 57.9 317.18 57.9 335.16"/><polygon class="cls-3" points="51.51 313.49 51.51 337.97 72.71 350.22 72.71 301.24 51.51 313.49"/><polygon class="cls-4" points="77.64 268.54 98.84 256.3 120.05 268.54 120.05 293.03 98.84 305.27 77.64 293.03 77.64 268.54"/><polygon class="cls-5" points="84.03 290.22 80.97 290.22 80.97 270.46 98.84 260.13 98.84 263.69 84.03 272.23 84.03 290.22"/><polygon class="cls-3" points="77.64 268.54 77.64 293.03 98.84 305.27 98.84 256.3 77.64 268.54"/><polygon class="cls-1" points="129.3 268.54 150.51 256.3 171.71 268.54 171.71 293.03 150.51 305.27 129.3 293.03 129.3 268.54"/><polygon class="cls-2" points="135.7 290.22 132.64 290.22 132.64 270.46 150.51 260.13 150.51 263.69 135.7 272.23 135.7 290.22"/><polygon class="cls-3" points="129.3 268.54 129.3 293.03 150.51 305.27 150.51 256.3 129.3 268.54"/><polygon class="cls-1" points="180.97 268.54 202.18 256.3 223.38 268.54 223.38 293.03 202.18 305.27 180.97 293.03 180.97 268.54"/><polygon class="cls-2" points="187.37 290.22 184.3 290.22 184.3 270.46 202.18 260.13 202.18 263.69 187.37 272.23 187.37 290.22"/><polygon class="cls-3" points="180.97 268.54 180.97 293.03 202.18 305.27 202.18 256.3 180.97 268.54"/><polygon class="cls-4" points="103.77 313.49 124.97 301.24 146.18 313.49 146.18 337.97 124.97 350.22 103.77 337.97 103.77 313.49"/><polygon class="cls-5" points="110.16 335.16 107.1 335.16 107.1 315.41 124.97 305.07 124.97 308.63 110.16 317.18 110.16 335.16"/><polygon class="cls-3" points="103.77 313.49 103.77 337.97 124.97 350.22 124.97 301.24 103.77 313.49"/><polygon class="cls-4" points="154.84 313.49 176.05 301.24 197.25 313.49 197.25 337.97 176.05 350.22 154.84 337.97 154.84 313.49"/><polygon class="cls-5" points="161.24 335.16 158.17 335.16 158.17 315.41 176.05 305.07 176.05 308.63 161.24 317.18 161.24 335.16"/><polygon class="cls-3" points="154.84 313.49 154.84 337.97 176.05 350.22 176.05 301.24 154.84 313.49"/><polygon class="cls-1" points="232.64 268.39 253.84 256.15 275.05 268.39 275.05 292.88 253.84 305.12 232.64 292.88 232.64 268.39"/><polygon class="cls-2" points="239.03 290.07 235.97 290.07 235.97 270.31 253.84 259.98 253.84 263.54 239.03 272.08 239.03 290.07"/><polygon class="cls-3" points="232.64 268.39 232.64 292.88 253.84 305.12 253.84 256.15 232.64 268.39"/><polygon class="cls-1" points="283.97 268.39 305.17 256.15 326.38 268.39 326.38 292.88 305.17 305.12 283.97 292.88 283.97 268.39"/><polygon class="cls-2" points="290.37 290.07 287.3 290.07 287.3 270.31 305.17 259.98 305.17 263.54 290.37 272.08 290.37 290.07"/><polygon class="cls-3" points="283.97 268.39 283.97 292.88 305.17 305.12 305.17 256.15 283.97 268.39"/><polygon class="cls-1" points="335.64 268.39 356.84 256.15 378.05 268.39 378.05 292.88 356.84 305.12 335.64 292.88 335.64 268.39"/><polygon class="cls-2" points="342.03 290.07 338.97 290.07 338.97 270.31 356.84 259.98 356.84 263.54 342.03 272.08 342.03 290.07"/><polygon class="cls-3" points="335.64 268.39 335.64 292.88 356.84 305.12 356.84 256.15 335.64 268.39"/><polygon class="cls-4" points="387.3 268.39 408.51 256.15 429.71 268.39 429.71 292.88 408.51 305.12 387.3 292.88 387.3 268.39"/><polygon class="cls-5" points="393.7 290.07 390.64 290.07 390.64 270.31 408.51 259.98 408.51 263.54 393.7 272.08 393.7 290.07"/><polygon class="cls-3" points="387.3 268.39 387.3 292.88 408.51 305.12 408.51 256.15 387.3 268.39"/><polygon class="cls-1" points="438.97 268.39 460.18 256.15 481.38 268.39 481.38 292.88 460.18 305.12 438.97 292.88 438.97 268.39"/><polygon class="cls-2" points="445.37 290.07 442.3 290.07 442.3 270.31 460.18 259.98 460.18 263.54 445.37 272.08 445.37 290.07"/><polygon class="cls-3" points="438.97 268.39 438.97 292.88 460.18 305.12 460.18 256.15 438.97 268.39"/><polygon class="cls-1" points="511.84 256.15 511.84 305.12 490.64 292.88 490.64 268.39 511.84 256.15"/><polygon class="cls-2" points="511.84 259.98 511.84 263.54 497.03 272.08 497.03 290.07 493.97 290.07 493.97 270.32 511.84 259.98"/><polygon class="cls-3" points="511.84 256.15 511.84 305.12 490.64 292.88 490.64 268.39 511.84 256.15"/><polygon class="cls-1" points="206.97 313.39 228.18 301.15 249.38 313.39 249.38 337.88 228.18 350.12 206.97 337.88 206.97 313.39"/><polygon class="cls-2" points="213.37 335.07 210.3 335.07 210.3 315.31 228.18 304.98 228.18 308.54 213.37 317.08 213.37 335.07"/><polygon class="cls-3" points="206.97 313.39 206.97 337.88 228.18 350.12 228.18 301.15 206.97 313.39"/><polygon class="cls-1" points="258.64 313.39 279.84 301.15 301.05 313.39 301.05 337.88 279.84 350.12 258.64 337.88 258.64 313.39"/><polygon class="cls-2" points="265.03 335.07 261.97 335.07 261.97 315.31 279.84 304.98 279.84 308.54 265.03 317.08 265.03 335.07"/><polygon class="cls-3" points="258.64 313.39 258.64 337.88 279.84 350.12 279.84 301.15 258.64 313.39"/><polygon class="cls-4" points="309.97 313.39 331.17 301.15 352.38 313.39 352.38 337.88 331.17 350.12 309.97 337.88 309.97 313.39"/><polygon class="cls-5" points="316.37 335.07 313.3 335.07 313.3 315.31 331.17 304.98 331.17 308.54 316.37 317.08 316.37 335.07"/><polygon class="cls-3" points="309.97 313.39 309.97 337.88 331.17 350.12 331.17 301.15 309.97 313.39"/><polygon class="cls-4" points="361.64 313.39 382.84 301.15 404.05 313.39 404.05 337.88 382.84 350.12 361.64 337.88 361.64 313.39"/><polygon class="cls-5" points="368.03 335.07 364.97 335.07 364.97 315.31 382.84 304.98 382.84 308.54 368.03 317.08 368.03 335.07"/><polygon class="cls-3" points="361.64 313.39 361.64 337.88 382.84 350.12 382.84 301.15 361.64 313.39"/><polygon class="cls-1" points="413.3 313.39 434.51 301.15 455.71 313.39 455.71 337.88 434.51 350.12 413.3 337.88 413.3 313.39"/><polygon class="cls-2" points="419.7 335.07 416.64 335.07 416.64 315.31 434.51 304.98 434.51 308.54 419.7 317.08 419.7 335.07"/><polygon class="cls-3" points="413.3 313.39 413.3 337.88 434.51 350.12 434.51 301.15 413.3 313.39"/><polygon class="cls-1" points="464.97 313.39 486.18 301.15 507.38 313.39 507.38 337.88 486.18 350.12 464.97 337.88 464.97 313.39"/><polygon class="cls-2" points="471.37 335.07 468.3 335.07 468.3 315.31 486.18 304.98 486.18 308.54 471.37 317.08 471.37 335.07"/><polygon class="cls-3" points="464.97 313.39 464.97 337.88 486.18 350.12 486.18 301.15 464.97 313.39"/><polygon class="cls-1" points="20.84 178.64 20.84 203.12 -0.36 215.37 -0.36 166.39 20.84 178.64"/><polygon class="cls-1" points="25.97 178.54 47.17 166.3 68.38 178.54 68.38 203.03 47.17 215.27 25.97 203.03 25.97 178.54"/><polygon class="cls-2" points="32.37 200.22 29.3 200.22 29.3 180.47 47.17 170.13 47.17 173.69 32.37 182.23 32.37 200.22"/><polygon class="cls-3" points="25.97 178.54 25.97 203.03 47.17 215.27 47.17 166.3 25.97 178.54"/><polygon class="cls-1" points="0.43 223.49 21.64 211.24 42.84 223.49 42.84 247.97 21.64 260.22 0.43 247.97 0.43 223.49"/><polygon class="cls-2" points="6.83 245.16 3.76 245.16 3.76 225.41 21.64 215.07 21.64 218.63 6.83 227.18 6.83 245.16"/><polygon class="cls-3" points="0.43 223.49 0.43 247.97 21.64 260.22 21.64 211.24 0.43 223.49"/><polygon class="cls-4" points="51.51 223.49 72.71 211.24 93.92 223.49 93.92 247.97 72.71 260.22 51.51 247.97 51.51 223.49"/><polygon class="cls-5" points="57.9 245.16 54.84 245.16 54.84 225.41 72.71 215.07 72.71 218.63 57.9 227.18 57.9 245.16"/><polygon class="cls-3" points="51.51 223.49 51.51 247.97 72.71 260.22 72.71 211.24 51.51 223.49"/><polygon class="cls-4" points="77.64 178.54 98.84 166.3 120.05 178.54 120.05 203.03 98.84 215.27 77.64 203.03 77.64 178.54"/><polygon class="cls-5" points="84.03 200.22 80.97 200.22 80.97 180.47 98.84 170.13 98.84 173.69 84.03 182.23 84.03 200.22"/><polygon class="cls-3" points="77.64 178.54 77.64 203.03 98.84 215.27 98.84 166.3 77.64 178.54"/><polygon class="cls-4" points="129.3 178.54 150.51 166.3 171.71 178.54 171.71 203.03 150.51 215.27 129.3 203.03 129.3 178.54"/><polygon class="cls-5" points="135.7 200.22 132.64 200.22 132.64 180.47 150.51 170.13 150.51 173.69 135.7 182.23 135.7 200.22"/><polygon class="cls-3" points="129.3 178.54 129.3 203.03 150.51 215.27 150.51 166.3 129.3 178.54"/><polygon class="cls-4" points="180.97 178.54 202.18 166.3 223.38 178.54 223.38 203.03 202.18 215.27 180.97 203.03 180.97 178.54"/><polygon class="cls-5" points="187.37 200.22 184.3 200.22 184.3 180.47 202.18 170.13 202.18 173.69 187.37 182.23 187.37 200.22"/><polygon class="cls-3" points="180.97 178.54 180.97 203.03 202.18 215.27 202.18 166.3 180.97 178.54"/><polygon class="cls-4" points="103.77 223.49 124.97 211.24 146.18 223.49 146.18 247.97 124.97 260.22 103.77 247.97 103.77 223.49"/><polygon class="cls-5" points="110.16 245.16 107.1 245.16 107.1 225.41 124.97 215.07 124.97 218.63 110.16 227.18 110.16 245.16"/><polygon class="cls-3" points="103.77 223.49 103.77 247.97 124.97 260.22 124.97 211.24 103.77 223.49"/><polygon class="cls-4" points="154.84 223.49 176.05 211.24 197.25 223.49 197.25 247.97 176.05 260.22 154.84 247.97 154.84 223.49"/><polygon class="cls-5" points="161.24 245.16 158.17 245.16 158.17 225.41 176.05 215.07 176.05 218.63 161.24 227.18 161.24 245.16"/><polygon class="cls-3" points="154.84 223.49 154.84 247.97 176.05 260.22 176.05 211.24 154.84 223.49"/><polygon class="cls-1" points="232.64 178.39 253.84 166.15 275.05 178.39 275.05 202.88 253.84 215.12 232.64 202.88 232.64 178.39"/><polygon class="cls-2" points="239.03 200.07 235.97 200.07 235.97 180.31 253.84 169.98 253.84 173.53 239.03 182.09 239.03 200.07"/><polygon class="cls-3" points="232.64 178.39 232.64 202.88 253.84 215.12 253.84 166.15 232.64 178.39"/><polygon class="cls-4" points="283.97 178.39 305.17 166.15 326.38 178.39 326.38 202.88 305.17 215.12 283.97 202.88 283.97 178.39"/><polygon class="cls-5" points="290.37 200.07 287.3 200.07 287.3 180.31 305.17 169.98 305.17 173.53 290.37 182.09 290.37 200.07"/><polygon class="cls-3" points="283.97 178.39 283.97 202.88 305.17 215.12 305.17 166.15 283.97 178.39"/><polygon class="cls-4" points="335.64 178.39 356.84 166.15 378.05 178.39 378.05 202.88 356.84 215.12 335.64 202.88 335.64 178.39"/><polygon class="cls-5" points="342.03 200.07 338.97 200.07 338.97 180.31 356.84 169.98 356.84 173.53 342.03 182.09 342.03 200.07"/><polygon class="cls-3" points="335.64 178.39 335.64 202.88 356.84 215.12 356.84 166.15 335.64 178.39"/><polygon class="cls-4" points="387.3 178.39 408.51 166.15 429.71 178.39 429.71 202.88 408.51 215.12 387.3 202.88 387.3 178.39"/><polygon class="cls-5" points="393.7 200.07 390.64 200.07 390.64 180.31 408.51 169.98 408.51 173.53 393.7 182.09 393.7 200.07"/><polygon class="cls-3" points="387.3 178.39 387.3 202.88 408.51 215.12 408.51 166.15 387.3 178.39"/><polygon class="cls-1" points="438.97 178.39 460.18 166.15 481.38 178.39 481.38 202.88 460.18 215.12 438.97 202.88 438.97 178.39"/><polygon class="cls-2" points="445.37 200.07 442.3 200.07 442.3 180.31 460.18 169.98 460.18 173.53 445.37 182.09 445.37 200.07"/><polygon class="cls-3" points="438.97 178.39 438.97 202.88 460.18 215.12 460.18 166.15 438.97 178.39"/><polygon class="cls-1" points="511.84 166.15 511.84 215.12 490.64 202.88 490.64 178.39 511.84 166.15"/><polygon class="cls-2" points="511.84 169.98 511.84 173.54 497.03 182.08 497.03 200.07 493.97 200.07 493.97 180.32 511.84 169.98"/><polygon class="cls-3" points="511.84 166.15 511.84 215.12 490.64 202.88 490.64 178.39 511.84 166.15"/><polygon class="cls-1" points="206.97 223.39 228.18 211.15 249.38 223.39 249.38 247.88 228.18 260.12 206.97 247.88 206.97 223.39"/><polygon class="cls-2" points="213.37 245.07 210.3 245.07 210.3 225.31 228.18 214.98 228.18 218.53 213.37 227.09 213.37 245.07"/><polygon class="cls-3" points="206.97 223.39 206.97 247.88 228.18 260.12 228.18 211.15 206.97 223.39"/><polygon class="cls-1" points="258.64 223.39 279.84 211.15 301.05 223.39 301.05 247.88 279.84 260.12 258.64 247.88 258.64 223.39"/><polygon class="cls-2" points="265.03 245.07 261.97 245.07 261.97 225.31 279.84 214.98 279.84 218.53 265.03 227.09 265.03 245.07"/><polygon class="cls-3" points="258.64 223.39 258.64 247.88 279.84 260.12 279.84 211.15 258.64 223.39"/><polygon class="cls-4" points="309.97 223.39 331.17 211.15 352.38 223.39 352.38 247.88 331.17 260.12 309.97 247.88 309.97 223.39"/><polygon class="cls-5" points="316.37 245.07 313.3 245.07 313.3 225.31 331.17 214.98 331.17 218.53 316.37 227.09 316.37 245.07"/><polygon class="cls-3" points="309.97 223.39 309.97 247.88 331.17 260.12 331.17 211.15 309.97 223.39"/><polygon class="cls-4" points="361.64 223.39 382.84 211.15 404.05 223.39 404.05 247.88 382.84 260.12 361.64 247.88 361.64 223.39"/><polygon class="cls-5" points="368.03 245.07 364.97 245.07 364.97 225.31 382.84 214.98 382.84 218.53 368.03 227.09 368.03 245.07"/><polygon class="cls-3" points="361.64 223.39 361.64 247.88 382.84 260.12 382.84 211.15 361.64 223.39"/><polygon class="cls-4" points="413.3 223.39 434.51 211.15 455.71 223.39 455.71 247.88 434.51 260.12 413.3 247.88 413.3 223.39"/><polygon class="cls-5" points="419.7 245.07 416.64 245.07 416.64 225.31 434.51 214.98 434.51 218.53 419.7 227.09 419.7 245.07"/><polygon class="cls-3" points="413.3 223.39 413.3 247.88 434.51 260.12 434.51 211.15 413.3 223.39"/><polygon class="cls-1" points="464.97 223.39 486.18 211.15 507.38 223.39 507.38 247.88 486.18 260.12 464.97 247.88 464.97 223.39"/><polygon class="cls-2" points="471.37 245.07 468.3 245.07 468.3 225.31 486.18 214.98 486.18 218.53 471.37 227.09 471.37 245.07"/><polygon class="cls-3" points="464.97 223.39 464.97 247.88 486.18 260.12 486.18 211.15 464.97 223.39"/><polygon class="cls-1" points="20.84 88.64 20.84 113.12 -0.36 125.37 -0.36 76.39 20.84 88.64"/><polygon class="cls-1" points="25.97 88.54 47.17 76.3 68.38 88.54 68.38 113.03 47.17 125.27 25.97 113.03 25.97 88.54"/><polygon class="cls-2" points="32.37 110.22 29.3 110.22 29.3 90.47 47.17 80.13 47.17 83.69 32.37 92.23 32.37 110.22"/><polygon class="cls-3" points="25.97 88.54 25.97 113.03 47.17 125.27 47.17 76.3 25.97 88.54"/><polygon class="cls-1" points="0.43 133.49 21.64 121.24 42.84 133.49 42.84 157.97 21.64 170.22 0.43 157.97 0.43 133.49"/><polygon class="cls-2" points="6.83 155.16 3.76 155.16 3.76 135.41 21.64 125.07 21.64 128.63 6.83 137.18 6.83 155.16"/><polygon class="cls-3" points="0.43 133.49 0.43 157.97 21.64 170.22 21.64 121.24 0.43 133.49"/><polygon class="cls-1" points="51.51 133.49 72.71 121.24 93.92 133.49 93.92 157.97 72.71 170.22 51.51 157.97 51.51 133.49"/><polygon class="cls-2" points="57.9 155.16 54.84 155.16 54.84 135.41 72.71 125.07 72.71 128.63 57.9 137.18 57.9 155.16"/><polygon class="cls-3" points="51.51 133.49 51.51 157.97 72.71 170.22 72.71 121.24 51.51 133.49"/><polygon class="cls-1" points="77.64 88.54 98.84 76.3 120.05 88.54 120.05 113.03 98.84 125.27 77.64 113.03 77.64 88.54"/><polygon class="cls-2" points="84.03 110.22 80.97 110.22 80.97 90.47 98.84 80.13 98.84 83.69 84.03 92.23 84.03 110.22"/><polygon class="cls-3" points="77.64 88.54 77.64 113.03 98.84 125.27 98.84 76.3 77.64 88.54"/><polygon class="cls-1" points="129.3 88.54 150.51 76.3 171.71 88.54 171.71 113.03 150.51 125.27 129.3 113.03 129.3 88.54"/><polygon class="cls-2" points="135.7 110.22 132.64 110.22 132.64 90.47 150.51 80.13 150.51 83.69 135.7 92.23 135.7 110.22"/><polygon class="cls-3" points="129.3 88.54 129.3 113.03 150.51 125.27 150.51 76.3 129.3 88.54"/><polygon class="cls-4" points="180.97 88.54 202.18 76.3 223.38 88.54 223.38 113.03 202.18 125.27 180.97 113.03 180.97 88.54"/><polygon class="cls-5" points="187.37 110.22 184.3 110.22 184.3 90.47 202.18 80.13 202.18 83.69 187.37 92.23 187.37 110.22"/><polygon class="cls-3" points="180.97 88.54 180.97 113.03 202.18 125.27 202.18 76.3 180.97 88.54"/><polygon class="cls-1" points="103.77 133.49 124.97 121.24 146.18 133.49 146.18 157.97 124.97 170.22 103.77 157.97 103.77 133.49"/><polygon class="cls-2" points="110.16 155.16 107.1 155.16 107.1 135.41 124.97 125.07 124.97 128.63 110.16 137.18 110.16 155.16"/><polygon class="cls-3" points="103.77 133.49 103.77 157.97 124.97 170.22 124.97 121.24 103.77 133.49"/><polygon class="cls-4" points="154.84 133.49 176.05 121.24 197.25 133.49 197.25 157.97 176.05 170.22 154.84 157.97 154.84 133.49"/><polygon class="cls-5" points="161.24 155.16 158.17 155.16 158.17 135.41 176.05 125.07 176.05 128.63 161.24 137.18 161.24 155.16"/><polygon class="cls-3" points="154.84 133.49 154.84 157.97 176.05 170.22 176.05 121.24 154.84 133.49"/><polygon class="cls-4" points="206.84 133.49 228.05 121.24 249.25 133.49 249.25 157.97 228.05 170.22 206.84 157.97 206.84 133.49"/><polygon class="cls-5" points="213.24 155.16 210.17 155.16 210.17 135.41 228.05 125.07 228.05 128.63 213.24 137.18 213.24 155.16"/><polygon class="cls-3" points="206.84 133.49 206.84 157.97 228.05 170.22 228.05 121.24 206.84 133.49"/><polygon class="cls-4" points="232.64 88.39 253.84 76.15 275.05 88.39 275.05 112.88 253.84 125.12 232.64 112.88 232.64 88.39"/><polygon class="cls-5" points="239.03 110.07 235.97 110.07 235.97 90.31 253.84 79.98 253.84 83.53 239.03 92.08 239.03 110.07"/><polygon class="cls-3" points="232.64 88.39 232.64 112.88 253.84 125.12 253.84 76.15 232.64 88.39"/><polygon class="cls-4" points="283.97 88.39 305.17 76.15 326.38 88.39 326.38 112.88 305.17 125.12 283.97 112.88 283.97 88.39"/><polygon class="cls-5" points="290.37 110.07 287.3 110.07 287.3 90.31 305.17 79.98 305.17 83.53 290.37 92.08 290.37 110.07"/><polygon class="cls-3" points="283.97 88.39 283.97 112.88 305.17 125.12 305.17 76.15 283.97 88.39"/><polygon class="cls-1" points="335.64 88.39 356.84 76.15 378.05 88.39 378.05 112.88 356.84 125.12 335.64 112.88 335.64 88.39"/><polygon class="cls-2" points="342.03 110.07 338.97 110.07 338.97 90.31 356.84 79.98 356.84 83.53 342.03 92.08 342.03 110.07"/><polygon class="cls-3" points="335.64 88.39 335.64 112.88 356.84 125.12 356.84 76.15 335.64 88.39"/><polygon class="cls-1" points="387.3 88.39 408.51 76.15 429.71 88.39 429.71 112.88 408.51 125.12 387.3 112.88 387.3 88.39"/><polygon class="cls-2" points="393.7 110.07 390.64 110.07 390.64 90.31 408.51 79.98 408.51 83.53 393.7 92.08 393.7 110.07"/><polygon class="cls-3" points="387.3 88.39 387.3 112.88 408.51 125.12 408.51 76.15 387.3 88.39"/><polygon class="cls-1" points="438.97 88.39 460.18 76.15 481.38 88.39 481.38 112.88 460.18 125.12 438.97 112.88 438.97 88.39"/><polygon class="cls-2" points="445.37 110.07 442.3 110.07 442.3 90.31 460.18 79.98 460.18 83.53 445.37 92.08 445.37 110.07"/><polygon class="cls-3" points="438.97 88.39 438.97 112.88 460.18 125.12 460.18 76.15 438.97 88.39"/><polygon class="cls-1" points="511.84 76.15 511.84 125.12 490.64 112.88 490.64 88.39 511.84 76.15"/><polygon class="cls-2" points="511.84 79.98 511.84 83.54 497.03 92.08 497.03 110.07 493.97 110.07 493.97 90.32 511.84 79.98"/><polygon class="cls-3" points="511.84 76.15 511.84 125.12 490.64 112.88 490.64 88.39 511.84 76.15"/><polygon class="cls-4" points="258.64 133.39 279.84 121.15 301.05 133.39 301.05 157.88 279.84 170.12 258.64 157.88 258.64 133.39"/><polygon class="cls-5" points="265.03 155.07 261.97 155.07 261.97 135.31 279.84 124.98 279.84 128.53 265.03 137.09 265.03 155.07"/><polygon class="cls-3" points="258.64 133.39 258.64 157.88 279.84 170.12 279.84 121.15 258.64 133.39"/><polygon class="cls-4" points="309.97 133.39 331.17 121.15 352.38 133.39 352.38 157.88 331.17 170.12 309.97 157.88 309.97 133.39"/><polygon class="cls-5" points="316.37 155.07 313.3 155.07 313.3 135.31 331.17 124.98 331.17 128.53 316.37 137.09 316.37 155.07"/><polygon class="cls-3" points="309.97 133.39 309.97 157.88 331.17 170.12 331.17 121.15 309.97 133.39"/><polygon class="cls-1" points="361.64 133.39 382.84 121.15 404.05 133.39 404.05 157.88 382.84 170.12 361.64 157.88 361.64 133.39"/><polygon class="cls-2" points="368.03 155.07 364.97 155.07 364.97 135.31 382.84 124.98 382.84 128.53 368.03 137.09 368.03 155.07"/><polygon class="cls-3" points="361.64 133.39 361.64 157.88 382.84 170.12 382.84 121.15 361.64 133.39"/><polygon class="cls-1" points="413.3 133.39 434.51 121.15 455.71 133.39 455.71 157.88 434.51 170.12 413.3 157.88 413.3 133.39"/><polygon class="cls-2" points="419.7 155.07 416.64 155.07 416.64 135.31 434.51 124.98 434.51 128.53 419.7 137.09 419.7 155.07"/><polygon class="cls-3" points="413.3 133.39 413.3 157.88 434.51 170.12 434.51 121.15 413.3 133.39"/><polygon class="cls-1" points="464.97 133.39 486.18 121.15 507.38 133.39 507.38 157.88 486.18 170.12 464.97 157.88 464.97 133.39"/><polygon class="cls-2" points="471.37 155.07 468.3 155.07 468.3 135.31 486.18 124.98 486.18 128.53 471.37 137.09 471.37 155.07"/><polygon class="cls-3" points="464.97 133.39 464.97 157.88 486.18 170.12 486.18 121.15 464.97 133.39"/><polygon class="cls-1" points="20.84 -1.36 20.84 23.12 -0.36 35.37 -0.36 -13.61 20.84 -1.36"/><polygon class="cls-1" points="25.97 -1.46 47.17 -13.7 68.38 -1.46 68.38 23.03 47.17 35.27 25.97 23.03 25.97 -1.46"/><polygon class="cls-2" points="32.37 20.22 29.3 20.22 29.3 0.47 47.17 -9.87 47.17 -6.32 32.37 2.23 32.37 20.22"/><polygon class="cls-3" points="25.97 -1.46 25.97 23.03 47.17 35.27 47.17 -13.7 25.97 -1.46"/><polygon class="cls-1" points="0.43 43.49 21.64 31.24 42.84 43.49 42.84 67.97 21.64 80.22 0.43 67.97 0.43 43.49"/><polygon class="cls-2" points="6.83 65.16 3.76 65.16 3.76 45.41 21.64 35.07 21.64 38.63 6.83 47.18 6.83 65.16"/><polygon class="cls-3" points="0.43 43.49 0.43 67.97 21.64 80.22 21.64 31.24 0.43 43.49"/><polygon class="cls-1" points="51.51 43.49 72.71 31.24 93.92 43.49 93.92 67.97 72.71 80.22 51.51 67.97 51.51 43.49"/><polygon class="cls-2" points="57.9 65.16 54.84 65.16 54.84 45.41 72.71 35.07 72.71 38.63 57.9 47.18 57.9 65.16"/><polygon class="cls-3" points="51.51 43.49 51.51 67.97 72.71 80.22 72.71 31.24 51.51 43.49"/><polygon class="cls-1" points="77.64 -1.46 98.84 -13.7 120.05 -1.46 120.05 23.03 98.84 35.27 77.64 23.03 77.64 -1.46"/><polygon class="cls-2" points="84.03 20.22 80.97 20.22 80.97 0.47 98.84 -9.87 98.84 -6.32 84.03 2.23 84.03 20.22"/><polygon class="cls-3" points="77.64 -1.46 77.64 23.03 98.84 35.27 98.84 -13.7 77.64 -1.46"/><polygon class="cls-1" points="129.3 -1.46 150.51 -13.7 171.71 -1.46 171.71 23.03 150.51 35.27 129.3 23.03 129.3 -1.46"/><polygon class="cls-2" points="135.7 20.22 132.64 20.22 132.64 0.47 150.51 -9.87 150.51 -6.32 135.7 2.23 135.7 20.22"/><polygon class="cls-3" points="129.3 -1.46 129.3 23.03 150.51 35.27 150.51 -13.7 129.3 -1.46"/><polygon class="cls-1" points="180.97 -1.46 202.18 -13.7 223.38 -1.46 223.38 23.03 202.18 35.27 180.97 23.03 180.97 -1.46"/><polygon class="cls-2" points="187.37 20.22 184.3 20.22 184.3 0.47 202.18 -9.87 202.18 -6.32 187.37 2.23 187.37 20.22"/><polygon class="cls-3" points="180.97 -1.46 180.97 23.03 202.18 35.27 202.18 -13.7 180.97 -1.46"/><polygon class="cls-1" points="103.77 43.49 124.97 31.24 146.18 43.49 146.18 67.97 124.97 80.22 103.77 67.97 103.77 43.49"/><polygon class="cls-2" points="110.16 65.16 107.1 65.16 107.1 45.41 124.97 35.07 124.97 38.63 110.16 47.18 110.16 65.16"/><polygon class="cls-3" points="103.77 43.49 103.77 67.97 124.97 80.22 124.97 31.24 103.77 43.49"/><polygon class="cls-4" points="154.84 43.49 176.05 31.24 197.25 43.49 197.25 67.97 176.05 80.22 154.84 67.97 154.84 43.49"/><polygon class="cls-5" points="161.24 65.16 158.17 65.16 158.17 45.41 176.05 35.07 176.05 38.63 161.24 47.18 161.24 65.16"/><polygon class="cls-3" points="154.84 43.49 154.84 67.97 176.05 80.22 176.05 31.24 154.84 43.49"/><polygon class="cls-1" points="232.64 -1.61 253.84 -13.85 275.05 -1.61 275.05 22.88 253.84 35.12 232.64 22.88 232.64 -1.61"/><polygon class="cls-2" points="239.03 20.07 235.97 20.07 235.97 0.32 253.84 -10.02 253.84 -6.46 239.03 2.08 239.03 20.07"/><polygon class="cls-3" points="232.64 -1.61 232.64 22.88 253.84 35.12 253.84 -13.85 232.64 -1.61"/><polygon class="cls-1" points="283.97 -1.61 305.17 -13.85 326.38 -1.61 326.38 22.88 305.17 35.12 283.97 22.88 283.97 -1.61"/><polygon class="cls-2" points="290.37 20.07 287.3 20.07 287.3 0.32 305.17 -10.02 305.17 -6.46 290.37 2.08 290.37 20.07"/><polygon class="cls-3" points="283.97 -1.61 283.97 22.88 305.17 35.12 305.17 -13.85 283.97 -1.61"/><polygon class="cls-1" points="335.64 -1.61 356.84 -13.85 378.05 -1.61 378.05 22.88 356.84 35.12 335.64 22.88 335.64 -1.61"/><polygon class="cls-2" points="342.03 20.07 338.97 20.07 338.97 0.32 356.84 -10.02 356.84 -6.46 342.03 2.08 342.03 20.07"/><polygon class="cls-3" points="335.64 -1.61 335.64 22.88 356.84 35.12 356.84 -13.85 335.64 -1.61"/><polygon class="cls-1" points="387.3 -1.61 408.51 -13.85 429.71 -1.61 429.71 22.88 408.51 35.12 387.3 22.88 387.3 -1.61"/><polygon class="cls-2" points="393.7 20.07 390.64 20.07 390.64 0.32 408.51 -10.02 408.51 -6.46 393.7 2.08 393.7 20.07"/><polygon class="cls-3" points="387.3 -1.61 387.3 22.88 408.51 35.12 408.51 -13.85 387.3 -1.61"/><polygon class="cls-1" points="438.97 -1.61 460.18 -13.85 481.38 -1.61 481.38 22.88 460.18 35.12 438.97 22.88 438.97 -1.61"/><polygon class="cls-2" points="445.37 20.07 442.3 20.07 442.3 0.32 460.18 -10.02 460.18 -6.46 445.37 2.08 445.37 20.07"/><polygon class="cls-3" points="438.97 -1.61 438.97 22.88 460.18 35.12 460.18 -13.85 438.97 -1.61"/><polygon class="cls-1" points="511.84 -13.85 511.84 35.12 490.64 22.88 490.64 -1.61 511.84 -13.85"/><polygon class="cls-2" points="497.03 20.07 493.97 20.07 493.97 0.32 511.84 -10.02 511.84 -6.46 497.03 2.08 497.03 20.07"/><polygon class="cls-3" points="511.84 -13.85 511.84 35.12 490.64 22.88 490.64 -1.61 511.84 -13.85"/><polygon class="cls-4" points="206.97 43.39 228.18 31.15 249.38 43.39 249.38 67.88 228.18 80.12 206.97 67.88 206.97 43.39"/><polygon class="cls-5" points="213.37 65.07 210.3 65.07 210.3 45.31 228.18 34.98 228.18 38.53 213.37 47.09 213.37 65.07"/><polygon class="cls-3" points="206.97 43.39 206.97 67.88 228.18 80.12 228.18 31.15 206.97 43.39"/><polygon class="cls-4" points="258.64 43.39 279.84 31.15 301.05 43.39 301.05 67.88 279.84 80.12 258.64 67.88 258.64 43.39"/><polygon class="cls-5" points="265.03 65.07 261.97 65.07 261.97 45.31 279.84 34.98 279.84 38.53 265.03 47.09 265.03 65.07"/><polygon class="cls-3" points="258.64 43.39 258.64 67.88 279.84 80.12 279.84 31.15 258.64 43.39"/><polygon class="cls-4" points="309.97 43.39 331.17 31.15 352.38 43.39 352.38 67.88 331.17 80.12 309.97 67.88 309.97 43.39"/><polygon class="cls-5" points="316.37 65.07 313.3 65.07 313.3 45.31 331.17 34.98 331.17 38.53 316.37 47.09 316.37 65.07"/><polygon class="cls-3" points="309.97 43.39 309.97 67.88 331.17 80.12 331.17 31.15 309.97 43.39"/><polygon class="cls-1" points="361.64 43.39 382.84 31.15 404.05 43.39 404.05 67.88 382.84 80.12 361.64 67.88 361.64 43.39"/><polygon class="cls-2" points="368.03 65.07 364.97 65.07 364.97 45.31 382.84 34.98 382.84 38.53 368.03 47.09 368.03 65.07"/><polygon class="cls-3" points="361.64 43.39 361.64 67.88 382.84 80.12 382.84 31.15 361.64 43.39"/><polygon class="cls-1" points="413.3 43.39 434.51 31.15 455.71 43.39 455.71 67.88 434.51 80.12 413.3 67.88 413.3 43.39"/><polygon class="cls-2" points="419.7 65.07 416.64 65.07 416.64 45.31 434.51 34.98 434.51 38.53 419.7 47.09 419.7 65.07"/><polygon class="cls-3" points="413.3 43.39 413.3 67.88 434.51 80.12 434.51 31.15 413.3 43.39"/><polygon class="cls-1" points="464.97 43.39 486.18 31.15 507.38 43.39 507.38 67.88 486.18 80.12 464.97 67.88 464.97 43.39"/><polygon class="cls-2" points="471.37 65.07 468.3 65.07 468.3 45.31 486.18 34.98 486.18 38.53 471.37 47.09 471.37 65.07"/><polygon class="cls-3" points="464.97 43.39 464.97 67.88 486.18 80.12 486.18 31.15 464.97 43.39"/><ellipse class="cls-6" cx="256.17" cy="311.29" rx="79.27" ry="117.78"/><path class="cls-4" d="M177.81,293.42H334.54A161.88,161.88,0,0,0,328.47,263H183.87A161.88,161.88,0,0,0,177.81,293.42Z"/><path class="cls-4" d="M180.78,347.71H331.56a169.25,169.25,0,0,0,3.78-30.41H177A169.43,169.43,0,0,0,180.78,347.71Z"/><path class="cls-4" d="M205.62,402H306.73a118.14,118.14,0,0,0,17.53-30.41H188.08A118.14,118.14,0,0,0,205.62,402Z"/><circle class="cls-6" cx="256.17" cy="174.74" r="58.33"/><path class="cls-6" d="M241.24,131.22,215.49,80.7a9.21,9.21,0,1,0-5.43,3.7l25.38,49.78Z"/><path class="cls-6" d="M271.1,131.22,296.85,80.7a9.21,9.21,0,1,1,5.43,3.7l-25.38,49.78Z"/><path class="cls-7" d="M256.46,214.82s159-4.66,178.77,0-36.12,87.39-75.74,95.54S256.46,214.82,256.46,214.82Z"/><path class="cls-7" d="M255.88,214.82s-159-4.66-178.77,0,36.12,87.39,75.74,95.54S255.88,214.82,255.88,214.82Z"/><polygon class="cls-6" points="237.6 425.82 256.17 444 274.74 425.82 237.6 425.82"/><path class="cls-3" d="M256.46,116.42h-.29a58.16,58.16,0,0,0-20.57,3.74L215.49,80.7a9.21,9.21,0,1,0-5.43,3.7l19.58,38.4a58.3,58.3,0,0,0-17.32,90.38l-.57.56c-48.6-1-121.63-2-134.64,1.08-19.81,4.66,36.12,87.39,75.74,95.54,7.42,1.53,15.67-.87,24.19-5.77-.08,2.22-.14,4.45-.14,6.7q0,3,.1,6h0c.08,2.42.23,4.82.41,7.2,0,.58.1,1.16.15,1.74q.25,2.92.59,5.79c.06.44.1.88.16,1.31q.94,7.34,2.47,14.33v0h0a148.22,148.22,0,0,0,8.8,27.44l.41.95c.47,1.06,1,2.09,1.45,3.13l.6,1.26c.47,1,.95,1.9,1.44,2.84l.75,1.42q.71,1.32,1.44,2.6c.29.51.59,1,.89,1.52.48.81,1,1.61,1.44,2.4.33.54.68,1.06,1,1.59.48.74,1,1.48,1.44,2.2.38.56.77,1.09,1.16,1.64s.94,1.35,1.43,2,1.07,1.38,1.6,2.06c9.37,11.93,20.63,20.65,33,25.06h-.07L256.17,444l.29-.28Z"/><polygon class="cls-4" points="128.97 359.54 150.18 347.3 171.38 359.54 171.38 384.03 150.18 396.27 128.97 384.03 128.97 359.54"/><polygon class="cls-5" points="135.37 381.22 132.3 381.22 132.3 361.46 150.18 351.13 150.18 354.69 135.37 363.23 135.37 381.22"/><polygon class="cls-3" points="128.97 359.54 128.97 384.03 150.18 396.27 150.18 347.3 128.97 359.54"/><polygon class="cls-4" points="155.97 403.54 177.18 391.3 198.38 403.54 198.38 428.03 177.18 440.27 155.97 428.03 155.97 403.54"/><polygon class="cls-5" points="162.37 425.22 159.3 425.22 159.3 405.46 177.18 395.13 177.18 398.69 162.37 407.23 162.37 425.22"/><polygon class="cls-3" points="155.97 403.54 155.97 428.03 177.18 440.27 177.18 391.3 155.97 403.54"/></svg>