<svg id="Layer_1" data-name="Layer 1" xmlns="http://www.w3.org/2000/svg" viewBox="0 0 512 512"><defs><style>.cls-1{fill:#3e2723;}.cls-2{fill:#fdd835;}.cls-3{fill:#c4c4c4;opacity:0.5;}.cls-4{fill:#fafafa;opacity:0.6;}</style></defs><title>bee-flat-icon</title><path class="cls-1" d="M379.91,202.15V162A81.22,81.22,0,0,0,276.46,83.72a91.12,91.12,0,0,0-145.12,73.44v45C68.42,206.73,18.6,259.33,18.6,323.41c0,67,54.58,121.59,121.63,121.59H371a121.59,121.59,0,0,0,8.9-242.85ZM104.73,296.77a20.43,20.43,0,1,1,20.4-20.43A20.43,20.43,0,0,1,104.73,296.77ZM281.34,406.09a12.27,12.27,0,0,1-12.25,12.28H245.91a12.3,12.3,0,0,1-12.28-12.28V240.69a12.3,12.3,0,0,1,12.28-12.28h23.18a12.27,12.27,0,0,1,12.25,12.28Zm17.2-204.31h-152V156.63a76,76,0,1,1,152,0Zm64.38,204.31a12.3,12.3,0,0,1-12.28,12.28H327.46a12.3,12.3,0,0,1-12.28-12.28V240.69a12.3,12.3,0,0,1,12.28-12.28h23.18a12.3,12.3,0,0,1,12.28,12.28Zm3.42-204.31h-52.6V157.16a90.74,90.74,0,0,0-25.1-62.66,64.62,64.62,0,0,1,9.9-.81,67.81,67.81,0,0,1,67.8,67.8Zm40.48,209.57a7.37,7.37,0,0,1-10.09-6.86V242.29a7.37,7.37,0,0,1,10.09-6.86A94.93,94.93,0,0,1,466,323.37v0A94.93,94.93,0,0,1,406.82,411.35Z"/><rect class="cls-2" x="315.18" y="228.41" width="47.75" height="189.96" rx="12.28" ry="12.28"/><path class="cls-2" d="M281.34,240.69v165.4a12.27,12.27,0,0,1-12.25,12.28H245.91a12.3,12.3,0,0,1-12.28-12.28V240.69a12.3,12.3,0,0,1,12.28-12.28h23.18A12.27,12.27,0,0,1,281.34,240.69Z"/><path class="cls-2" d="M466,323.37v0a94.93,94.93,0,0,1-59.15,87.95,7.37,7.37,0,0,1-10.09-6.86V242.29a7.37,7.37,0,0,1,10.09-6.86A94.93,94.93,0,0,1,466,323.37Z"/><path class="cls-3" d="M125.13,276.35a20.41,20.41,0,1,1-20.4-20.43A20.42,20.42,0,0,1,125.13,276.35Z"/><path class="cls-4" d="M298.54,156.63v45.15h-152V156.63a76,76,0,1,1,152,0Z"/><path class="cls-4" d="M366.34,161.49v40.29h-52.6V157.16a90.74,90.74,0,0,0-25.1-62.66,64.62,64.62,0,0,1,9.9-.81A67.81,67.81,0,0,1,366.34,161.49Z"/></svg>